<?xml version="1.0" encoding="UTF-8"?>
<!DOCTYPE svg PUBLIC "-//W3C//DTD SVG 1.1//EN" "http://www.w3.org/Graphics/SVG/1.1/DTD/svg11.dtd">
<svg xmlns="http://www.w3.org/2000/svg" version="1.1" width="84px" height="50px" style="shape-rendering:geometricPrecision; text-rendering:geometricPrecision; image-rendering:optimizeQuality; fill-rule:evenodd; clip-rule:evenodd" xmlns:xlink="http://www.w3.org/1999/xlink">
<g><path style="opacity:0.712" fill="#f2194d" d="M 8.5,-0.5 C 12.1667,-0.5 15.8333,-0.5 19.5,-0.5C 23.8651,1.53524 26.8651,4.86858 28.5,9.5C 28.2322,11.099 28.5655,12.4324 29.5,13.5C 27.8574,23.1465 22.1907,28.1465 12.5,28.5C 11.609,27.8902 10.609,27.5569 9.5,27.5C 5.27077,25.9358 1.93744,23.2692 -0.5,19.5C -0.5,15.8333 -0.5,12.1667 -0.5,8.5C 1.5,4.5 4.5,1.5 8.5,-0.5 Z"/></g>
<g><path style="opacity:1" fill="#fff6f8" d="M 9.5,2.5 C 20.8451,1.34673 26.0118,6.34673 25,17.5C 23.0281,22.7434 19.1948,25.4101 13.5,25.5C 4.76646,23.7169 1.26646,18.3836 3,9.5C 4.69406,6.64238 6.86073,4.30904 9.5,2.5 Z"/></g>
<g><path style="opacity:0.707" fill="#fe0048" d="M 42.5,-0.5 C 43.8333,-0.5 45.1667,-0.5 46.5,-0.5C 48.9491,1.69363 48.9491,4.02696 46.5,6.5C 66.0966,9.43326 78.4299,20.4333 83.5,39.5C 83.5,42.5 83.5,45.5 83.5,48.5C 82.8333,48.5 82.5,48.8333 82.5,49.5C 56.8333,49.5 31.1667,49.5 5.5,49.5C 4.37609,41.781 5.70942,34.4476 9.5,27.5C 10.609,27.5569 11.609,27.8902 12.5,28.5C 10.4041,33.978 9.07076,39.6447 8.5,45.5C 13.8333,45.5 19.1667,45.5 24.5,45.5C 24.8039,46.1499 25.1373,46.8165 25.5,47.5C 37.4861,48.6659 49.4861,48.8326 61.5,48C 62.2524,47.3292 62.5858,46.4959 62.5,45.5C 68.1667,45.5 73.8333,45.5 79.5,45.5C 79.3256,42.1262 78.8256,38.7928 78,35.5C 77.5065,37.1341 77.3398,38.8008 77.5,40.5C 76.325,40.719 75.325,40.3857 74.5,39.5C 72.8498,31.0349 68.3498,24.7016 61,20.5C 60.5357,19.9056 60.369,19.2389 60.5,18.5C 61.7079,17.7659 63.0413,17.4326 64.5,17.5C 63.3406,15.7497 61.674,14.7497 59.5,14.5C 49.7116,9.82258 39.7116,9.48925 29.5,13.5C 28.5655,12.4324 28.2322,11.099 28.5,9.5C 33.0116,8.05132 37.6783,7.21799 42.5,7C 41.5409,4.76203 41.5409,2.26203 42.5,-0.5 Z M 64.5,17.5 C 66.0269,17.427 67.0269,18.0937 67.5,19.5C 65.9731,19.573 64.9731,18.9063 64.5,17.5 Z M 28.5,28.5 C 38.8333,28.5 49.1667,28.5 59.5,28.5C 59.6646,31.5184 59.498,34.5184 59,37.5C 58.1074,38.0814 57.1074,38.4148 56,38.5C 52.1522,37.1619 48.6522,35.1619 45.5,32.5C 42.1662,33.8314 39.1662,35.6647 36.5,38C 29.8404,38.4939 27.1737,35.3272 28.5,28.5 Z M 44.5,36.5 C 47.2682,38.0872 49.9348,39.9205 52.5,42C 54.9005,42.1858 57.2338,42.6858 59.5,43.5C 49.1881,44.4986 38.8548,44.8319 28.5,44.5C 27.8738,40.8046 28.8738,39.9712 31.5,42C 37.017,42.9068 41.3504,41.0735 44.5,36.5 Z"/></g>
<g><path style="opacity:1" fill="#f43b59" d="M 17.5,8.5 C 18.3764,8.36912 19.0431,8.70245 19.5,9.5C 18.376,10.914 17.376,12.414 16.5,14C 17.7425,14.3114 18.7425,13.8114 19.5,12.5C 22.1667,14.5 22.1667,16.5 19.5,18.5C 17.6887,17.1735 15.6887,16.1735 13.5,15.5C 15.11,13.2746 16.4434,10.9413 17.5,8.5 Z"/></g>
<g><path style="opacity:0.651" fill="#f10c4d" d="M 59.5,14.5 C 60.2341,15.7079 60.5674,17.0413 60.5,18.5C 59.1667,18.5 57.8333,18.5 56.5,18.5C 56.0882,16.0274 57.0882,14.6941 59.5,14.5 Z"/></g>
<g><path style="opacity:1" fill="#f32a49" d="M 8.5,8.5 C 12.0714,8.40766 13.2381,10.0743 12,13.5C 8.66011,15.6077 8.82678,17.1077 12.5,18C 10.4213,18.8077 8.42131,18.641 6.5,17.5C 8.04127,15.796 9.3746,13.9626 10.5,12C 10.1667,11.5 9.83333,11 9.5,10.5C 6.12134,11.4515 5.78801,10.7849 8.5,8.5 Z"/></g>
<g><path style="opacity:0.683" fill="#f40a4c" d="M 62.5,45.5 C 62.5858,46.4959 62.2524,47.3292 61.5,48C 49.4861,48.8326 37.4861,48.6659 25.5,47.5C 25.1373,46.8165 24.8039,46.1499 24.5,45.5C 24.17,38.8002 24.5033,32.1335 25.5,25.5C 29.4452,24.7315 33.4452,24.2315 37.5,24C 35.4303,22.5372 34.0969,20.5372 33.5,18C 33.6878,16.1182 34.6878,14.9515 36.5,14.5C 40.1571,14.7738 42.9904,16.4405 45,19.5C 47.8656,16.3591 50.0323,16.3591 51.5,19.5C 51.6102,21.374 50.9436,22.874 49.5,24C 53.5,24.3333 57.5,24.6667 61.5,25C 62,25.5 62.5,26 63,26.5C 63.0152,33.2506 62.8485,39.5839 62.5,45.5 Z M 37.5,18.5 C 39.8444,18.6748 41.511,19.8415 42.5,22C 39.6318,22.6401 37.9651,21.4734 37.5,18.5 Z M 28.5,28.5 C 27.1737,35.3272 29.8404,38.4939 36.5,38C 39.1662,35.6647 42.1662,33.8314 45.5,32.5C 48.6522,35.1619 52.1522,37.1619 56,38.5C 57.1074,38.4148 58.1074,38.0814 59,37.5C 59.498,34.5184 59.6646,31.5184 59.5,28.5C 49.1667,28.5 38.8333,28.5 28.5,28.5 Z M 44.5,36.5 C 41.3504,41.0735 37.017,42.9068 31.5,42C 28.8738,39.9712 27.8738,40.8046 28.5,44.5C 38.8548,44.8319 49.1881,44.4986 59.5,43.5C 57.2338,42.6858 54.9005,42.1858 52.5,42C 49.9348,39.9205 47.2682,38.0872 44.5,36.5 Z"/></g>
</svg>
