<?xml version="1.0" standalone="no"?>
<!DOCTYPE svg PUBLIC "-//W3C//DTD SVG 20010904//EN"
 "http://www.w3.org/TR/2001/REC-SVG-20010904/DTD/svg10.dtd">
<svg version="1.0" xmlns="http://www.w3.org/2000/svg"
 width="34.000000pt" height="34.000000pt" viewBox="0 0 61.000000 61.000000"
 preserveAspectRatio="xMidYMid meet">

<g transform="translate(0.000000,61.000000) scale(0.100000,-0.100000)"
fill="#f5074e" stroke="none">
<path d="M225 597 c-62 -21 -97 -42 -137 -84 -114 -117 -111 -307 5 -421 120
-118 309 -117 425 1 118 120 117 309 -1 425 -76 75 -202 109 -292 79z m180
-34 c65 -22 136 -93 158 -158 65 -190 -63 -375 -258 -375 -77 0 -142 26 -195
80 -76 75 -100 188 -63 295 21 62 93 136 154 158 59 21 144 21 204 0z"/>
<path d="M290 551 c0 -11 25 -21 51 -21 31 0 101 -40 137 -77 18 -19 37 -33
44 -31 24 8 -72 97 -128 118 -57 21 -104 26 -104 11z"/>
<path d="M276 485 c-20 -30 -21 -75 -1 -101 18 -23 20 -40 3 -26 -7 5 -26 12
-43 14 -27 3 -30 0 -33 -28 -4 -39 30 -84 64 -84 15 0 24 -6 24 -16 0 -10 -6
-14 -17 -10 -72 21 -73 21 -73 -18 0 -42 36 -86 70 -86 17 0 20 -6 20 -41 0
-52 24 -48 28 4 3 29 7 37 23 37 34 0 71 46 67 83 -3 34 -10 36 -63 23 -18 -5
-25 -2 -25 9 0 9 9 15 24 15 31 0 66 43 66 81 0 26 -3 29 -33 29 -18 0 -38 -5
-45 -12 -17 -17 -14 3 3 26 20 26 19 71 -1 101 -21 32 -37 32 -58 0z m54 -47
c0 -11 -5 -29 -11 -40 -11 -21 -12 -21 -25 -3 -17 23 -18 57 -2 73 15 15 38
-3 38 -30z m-58 -105 c22 -20 24 -53 3 -53 -8 0 -24 9 -35 20 -40 40 -10 71
32 33z m118 4 c0 -22 -31 -57 -51 -57 -24 0 -25 27 -2 52 19 21 53 24 53 5z
m-118 -134 c22 -20 24 -53 3 -53 -19 0 -55 36 -55 55 0 20 29 19 52 -2z m118
2 c0 -19 -36 -55 -55 -55 -20 0 -19 29 2 52 20 22 53 24 53 3z"/>
<path d="M528 345 c16 -57 32 -73 32 -31 0 35 -20 86 -35 86 -10 0 -9 -12 3
-55z"/>
</g>
</svg>
